<?xml version="1.0" encoding="utf-8"?>
<!-- Generator: Adobe Illustrator 24.3.0, SVG Export Plug-In . SVG Version: 6.00 Build 0)  -->
<svg version="1.1" id="Layer_1" xmlns="http://www.w3.org/2000/svg" xmlns:xlink="http://www.w3.org/1999/xlink" x="0px" y="0px"
	 viewBox="0 0 100 82" style="enable-background:new 0 0 100 82;" xml:space="preserve">
<style type="text/css">
	.st0{fill-rule:evenodd;clip-rule:evenodd;fill:#161D28;}
</style>
<path class="st0" d="M50.5-0.1c-23.2,0-42,18.8-42,42c0,18.6,12,34.3,28.8,39.9c2.1,0.4,2.9-0.9,2.9-2c0-1,0-3.6-0.1-7.1
	c-11.7,2.5-14.2-5.6-14.2-5.6c-1.9-4.9-4.7-6.1-4.7-6.1c-3.8-2.6,0.3-2.6,0.3-2.6c4.2,0.3,6.4,4.3,6.4,4.3c3.7,6.4,9.8,4.6,12.2,3.5
	c0.4-2.7,1.5-4.6,2.7-5.6c-9.3-1.1-19.1-4.7-19.1-20.8c0-4.6,1.6-8.3,4.3-11.3c-0.4-1.1-1.9-5.3,0.4-11.1c0,0,3.5-1.1,11.6,4.3
	c3.4-0.9,6.9-1.4,10.5-1.4c3.6,0,7.2,0.5,10.5,1.4c8-5.4,11.5-4.3,11.5-4.3c2.3,5.8,0.9,10.1,0.4,11.1c2.7,2.9,4.3,6.7,4.3,11.3
	c0,16.1-9.8,19.7-19.2,20.7c1.5,1.3,2.9,3.9,2.9,7.8c0,5.6-0.1,10.2-0.1,11.5c0,1.1,0.8,2.4,2.9,2C80.5,76.3,92.5,60.5,92.5,42
	C92.5,18.8,73.7-0.1,50.5-0.1z"/>
</svg>
