<?xml version="1.0" encoding="UTF-8"?>
<svg id="Layer_1" xmlns="http://www.w3.org/2000/svg" version="1.1" viewBox="0 0 100 82">
  <!-- Generator: Adobe Illustrator 29.2.1, SVG Export Plug-In . SVG Version: 2.1.0 Build 116)  -->
  <path d="M13.79.05l71.99-.05c2.95.31,5.07,2.68,5.3,5.6v70.64c-.1,2.93-2.34,5.48-5.3,5.76H14.21c-2.95-.31-5.07-2.68-5.3-5.6V5.6C9.13,2.83,11.03.57,13.79.05ZM79.04,45.37c-.39-8.14-3.13-14.5-12.01-15.56-4.88-.58-9.46.47-12.81,4.2l-1.53,2.08v-5.37h-11.83v39.31h12.29v-21.26c.33-5.24,2.46-8.72,8.22-8.22,3.28.29,5.29,3.41,5.29,6.53v22.95s12.37,0,12.37,0v-24.65ZM21.05,30.71v39.31h12.29V30.71h-12.29ZM27.18,11.25c-3.9,0-7.06,3.16-7.06,7.06s3.16,7.06,7.06,7.06,7.06-3.16,7.06-7.06-3.16-7.06-7.06-7.06Z" fill="#1c1c1c"/>
</svg>