<svg xmlns="http://www.w3.org/2000/svg" viewBox="0 0 100 82"><title>twitter</title><path d="M100,9.62a41.008,41.008,0,0,1-11.783,3.231A20.58,20.58,0,0,0,97.237,1.5,41.08,41.08,0,0,1,84.209,6.479a20.535,20.535,0,0,0-34.96,18.712A58.245,58.245,0,0,1,6.962,3.755a20.538,20.538,0,0,0,6.349,27.391A20.442,20.442,0,0,1,4.019,28.58c0,.086,0,.171,0,.258A20.529,20.529,0,0,0,20.474,48.955a20.556,20.556,0,0,1-9.265.352A20.536,20.536,0,0,0,30.374,63.554a41.162,41.162,0,0,1-25.48,8.783A41.617,41.617,0,0,1,0,72.05a58.071,58.071,0,0,0,31.449,9.218c37.737,0,58.373-31.262,58.373-58.373q0-1.335-.059-2.655A41.7,41.7,0,0,0,100,9.62Z" fill="#fff"/></svg>