<svg xmlns="http://www.w3.org/2000/svg" viewBox="0 0 100 82"><title>twitter_dark</title><path d="M100,9.62a41.03,41.03,0,0,1-11.783,3.231A20.577,20.577,0,0,0,97.237,1.5,41.08,41.08,0,0,1,84.209,6.479a20.535,20.535,0,0,0-34.96,18.712A58.246,58.246,0,0,1,6.962,3.755a20.538,20.538,0,0,0,6.349,27.391A20.433,20.433,0,0,1,4.019,28.58v.258A20.529,20.529,0,0,0,20.474,48.955a20.558,20.558,0,0,1-9.265.352A20.536,20.536,0,0,0,30.374,63.554a41.161,41.161,0,0,1-25.48,8.783A41.465,41.465,0,0,1,0,72.05a58.077,58.077,0,0,0,31.449,9.218c37.737,0,58.373-31.262,58.373-58.373q0-1.335-.059-2.655A41.713,41.713,0,0,0,100,9.62Z" fill="#161d28"/></svg>